ISO-10303-21;
HEADER;
FILE_DESCRIPTION (( 'STEP AP214' ),
    '1' );
FILE_NAME ('Corner_Pad_Insert.STEP',
    '2026-07-22T13:44:19',
    ( '' ),
    ( '' ),
    'SwSTEP 2.0',
    'SolidWorks 2024',
    '' );
FILE_SCHEMA (( 'AUTOMOTIVE_DESIGN' ));
ENDSEC;

DATA;
#1 = CARTESIAN_POINT ( 'NONE',  ( 0.000000000000000000, -0.5298445526755998225, -0.1675000000000019806 ) ) ;
#2 = VECTOR ( 'NONE', #77, 39.37007874015748143 ) ;
#3 = EDGE_LOOP ( 'NONE', ( #33, #165, #76, #157 ) ) ;
#4 = LINE ( 'NONE', #72, #129 ) ;
#5 = DIRECTION ( 'NONE',  ( 0.000000000000000000, 0.000000000000000000, 1.000000000000000000 ) ) ;
#6 = ORIENTED_EDGE ( 'NONE', *, *, #7, .F. ) ;
#7 = EDGE_CURVE ( 'NONE', #124, #188, #192, .T. ) ;
#8 = CARTESIAN_POINT ( 'NONE',  ( 0.000000000000000000, 0.2000000000000000111, 0.000000000000000000 ) ) ;
#9 = AXIS2_PLACEMENT_3D ( 'NONE', #260, #48, #222 ) ;
#10 = ORIENTED_EDGE ( 'NONE', *, *, #139, .T. ) ;
#11 = DIRECTION ( 'NONE',  ( 0.000000000000000000, 0.000000000000000000, 1.000000000000000000 ) ) ;
#12 =( LENGTH_UNIT ( ) NAMED_UNIT ( * ) SI_UNIT ( $, .METRE. ) );
#13 = ADVANCED_FACE ( 'NONE', ( #120 ), #60, .T. ) ;
#14 = PRODUCT ( 'Corner_Pad_Insert', 'Corner_Pad_Insert', '', ( #93 ) ) ;
#15 = DIRECTION ( 'NONE',  ( 0.000000000000000000, 0.000000000000000000, -1.000000000000000000 ) ) ;
#16 = ORIENTED_EDGE ( 'NONE', *, *, #181, .F. ) ;
#17 = VERTEX_POINT ( 'NONE', #247 ) ;
#18 = AXIS2_PLACEMENT_3D ( 'NONE', #108, #196, #151 ) ;
#19 = CARTESIAN_POINT ( 'NONE',  ( -0.2430000000000028526, 0.1900000000000000300, 0.1675000000000019806 ) ) ;
#20 = FACE_OUTER_BOUND ( 'NONE', #80, .T. ) ;
#21 = FILL_AREA_STYLE ('',( #103 ) ) ;
#22 = ORIENTED_EDGE ( 'NONE', *, *, #181, .T. ) ;
#23 = DIRECTION ( 'NONE',  ( 1.000000000000000000, 9.967440961527362599E-31, 0.000000000000000000 ) ) ;
#24 = AXIS2_PLACEMENT_3D ( 'NONE', #64, #262, #258 ) ;
#25 = ADVANCED_FACE ( 'NONE', ( #20 ), #271, .F. ) ;
#26 = EDGE_CURVE ( 'NONE', #86, #122, #237, .T. ) ;
#27 = CARTESIAN_POINT ( 'NONE',  ( -0.2430000000000028526, -0.5298445526755998225, -0.1675000000000019806 ) ) ;
#28 = CARTESIAN_POINT ( 'NONE',  ( 0.000000000000000000, 0.000000000000000000, 0.000000000000000000 ) ) ;
#29 = CIRCLE ( 'NONE', #160, 0.08750000000000000833 ) ;
#30 = ORIENTED_EDGE ( 'NONE', *, *, #212, .F. ) ;
#31 = DIRECTION ( 'NONE',  ( 0.000000000000000000, 1.000000000000000000, 0.000000000000000000 ) ) ;
#32 = VECTOR ( 'NONE', #5, 39.37007874015748143 ) ;
#33 = ORIENTED_EDGE ( 'NONE', *, *, #66, .F. ) ;
#34 = CARTESIAN_POINT ( 'NONE',  ( -0.2430000000000028526, -0.4058004435680193644, 0.000000000000000000 ) ) ;
#35 = EDGE_CURVE ( 'NONE', #209, #124, #214, .T. ) ;
#36 = EDGE_LOOP ( 'NONE', ( #241, #255, #22, #190 ) ) ;
#37 = FACE_OUTER_BOUND ( 'NONE', #132, .T. ) ;
#38 = EDGE_LOOP ( 'NONE', ( #104, #268, #16, #10 ) ) ;
#39 = ORIENTED_EDGE ( 'NONE', *, *, #66, .T. ) ;
#40 = CIRCLE ( 'NONE', #127, 0.1675000000000019806 ) ;
#41 = DIRECTION ( 'NONE',  ( 0.000000000000000000, 1.000000000000000000, 0.000000000000000000 ) ) ;
#42 = APPLICATION_CONTEXT ( 'automotive_design' ) ;
#43 = CARTESIAN_POINT ( 'NONE',  ( 0.000000000000000000, -0.5298445526755998225, 0.1675000000000019806 ) ) ;
#44 = ORIENTED_EDGE ( 'NONE', *, *, #130, .F. ) ;
#45 = STYLED_ITEM ( 'NONE', ( #142 ), #203 ) ;
#46 = VECTOR ( 'NONE', #152, 39.37007874015748143 ) ;
#47 = CARTESIAN_POINT ( 'NONE',  ( 0.000000000000000000, 0.2000000000000000111, -0.08750000000000000833 ) ) ;
#48 = DIRECTION ( 'NONE',  ( 0.000000000000000000, 0.000000000000000000, -1.000000000000000000 ) ) ;
#49 = EDGE_CURVE ( 'NONE', #209, #259, #178, .T. ) ;
#50 = VECTOR ( 'NONE', #90, 39.37007874015748143 ) ;
#51 = VERTEX_POINT ( 'NONE', #69 ) ;
#52 = DIRECTION ( 'NONE',  ( 0.000000000000000000, 1.000000000000000000, 0.000000000000000000 ) ) ;
#53 = ADVANCED_FACE ( 'NONE', ( #217 ), #112, .F. ) ;
#54 = ORIENTED_EDGE ( 'NONE', *, *, #109, .F. ) ;
#55 = FACE_OUTER_BOUND ( 'NONE', #3, .T. ) ;
#56 = CARTESIAN_POINT ( 'NONE',  ( 0.000000000000000000, 0.000000000000000000, 0.000000000000000000 ) ) ;
#57 = AXIS2_PLACEMENT_3D ( 'NONE', #118, #52, #11 ) ;
#58 =( LENGTH_UNIT ( ) NAMED_UNIT ( * ) SI_UNIT ( $, .METRE. ) );
#59 = DIRECTION ( 'NONE',  ( -0.000000000000000000, -1.000000000000000000, -0.000000000000000000 ) ) ;
#60 = CYLINDRICAL_SURFACE ( 'NONE', #70, 0.1675000000000019806 ) ;
#61 = EDGE_CURVE ( 'NONE', #102, #99, #110, .T. ) ;
#62 =( GEOMETRIC_REPRESENTATION_CONTEXT ( 3 ) GLOBAL_UNCERTAINTY_ASSIGNED_CONTEXT ( ( #267 ) ) GLOBAL_UNIT_ASSIGNED_CONTEXT ( ( #233, #172, #211 ) ) REPRESENTATION_CONTEXT ( 'NONE', 'WORKASPACE' ) );
#63 =( NAMED_UNIT ( * ) PLANE_ANGLE_UNIT ( ) SI_UNIT ( $, .RADIAN. ) );
#64 = CARTESIAN_POINT ( 'NONE',  ( 0.000000000000000000, 0.2000000000000000111, 0.000000000000000000 ) ) ;
#65 = ORIENTED_EDGE ( 'NONE', *, *, #26, .F. ) ;
#66 = EDGE_CURVE ( 'NONE', #259, #188, #87, .T. ) ;
#67 = ORIENTED_EDGE ( 'NONE', *, *, #147, .F. ) ;
#68 = VECTOR ( 'NONE', #41, 39.37007874015748143 ) ;
#69 = CARTESIAN_POINT ( 'NONE',  ( 1.071565949253934149E-17, 0.02999999999999998848, 0.08750000000000000833 ) ) ;
#70 = AXIS2_PLACEMENT_3D ( 'NONE', #186, #266, #163 ) ;
#71 = ADVANCED_FACE ( 'NONE', ( #164 ), #94, .F. ) ;
#72 = CARTESIAN_POINT ( 'NONE',  ( 1.025641694285920369E-17, 0.1900000000000000300, -0.1675000000000019806 ) ) ;
#73 = DIRECTION ( 'NONE',  ( 0.000000000000000000, -1.000000000000000000, 0.000000000000000000 ) ) ;
#74 = DIRECTION ( 'NONE',  ( -1.000000000000000000, 0.000000000000000000, 0.000000000000000000 ) ) ;
#75 = AXIS2_PLACEMENT_3D ( 'NONE', #202, #185, #162 ) ;
#76 = ORIENTED_EDGE ( 'NONE', *, *, #35, .T. ) ;
#77 = DIRECTION ( 'NONE',  ( -1.000000000000000000, -9.967440961527362599E-31, 0.000000000000000000 ) ) ;
#78 = DIRECTION ( 'NONE',  ( 1.000000000000000000, -0.000000000000000000, 0.000000000000000000 ) ) ;
#79 = LINE ( 'NONE', #161, #50 ) ;
#80 = EDGE_LOOP ( 'NONE', ( #171, #141, #238, #65 ) ) ;
#81 = CARTESIAN_POINT ( 'NONE',  ( 0.000000000000000000, 0.02999999999999998848, -0.08750000000000000833 ) ) ;
#82 = ORIENTED_EDGE ( 'NONE', *, *, #61, .T. ) ;
#83 = SURFACE_STYLE_USAGE ( .BOTH. , #270 ) ;
#84 = ORIENTED_EDGE ( 'NONE', *, *, #130, .T. ) ;
#85 = EDGE_LOOP ( 'NONE', ( #228, #207, #210, #84 ) ) ;
#86 = VERTEX_POINT ( 'NONE', #115 ) ;
#87 = LINE ( 'NONE', #175, #239 ) ;
#88 = ADVANCED_FACE ( 'NONE', ( #55 ), #154, .F. ) ;
#89 = DIRECTION ( 'NONE',  ( -0.000000000000000000, -1.000000000000000000, -0.000000000000000000 ) ) ;
#90 = DIRECTION ( 'NONE',  ( 1.000000000000000000, 0.000000000000000000, 0.000000000000000000 ) ) ;
#91 = AXIS2_PLACEMENT_3D ( 'NONE', #56, #136, #159 ) ;
#92 = CARTESIAN_POINT ( 'NONE',  ( 0.000000000000000000, 0.1900000000000000300, 0.000000000000000000 ) ) ;
#93 = PRODUCT_CONTEXT ( 'NONE', #248, 'mechanical' ) ;
#94 = CYLINDRICAL_SURFACE ( 'NONE', #229, 0.08750000000000000833 ) ;
#95 = PLANE ( 'NONE',  #75 ) ;
#96 = VERTEX_POINT ( 'NONE', #135 ) ;
#97 = APPLICATION_PROTOCOL_DEFINITION ( 'draft international standard', 'automotive_design', 1998, #42 ) ;
#98 =( GEOMETRIC_REPRESENTATION_CONTEXT ( 3 ) GLOBAL_UNCERTAINTY_ASSIGNED_CONTEXT ( ( #240 ) ) GLOBAL_UNIT_ASSIGNED_CONTEXT ( ( #254, #63, #145 ) ) REPRESENTATION_CONTEXT ( 'NONE', 'WORKASPACE' ) );
#99 = VERTEX_POINT ( 'NONE', #140 ) ;
#100 = DIRECTION ( 'NONE',  ( -1.000000000000000000, -9.967440961527360847E-31, 0.000000000000000000 ) ) ;
#101 = CARTESIAN_POINT ( 'NONE',  ( 1.071565949253934149E-17, 0.2000000000000000111, 0.08750000000000000833 ) ) ;
#102 = VERTEX_POINT ( 'NONE', #221 ) ;
#103 = FILL_AREA_STYLE_COLOUR ( '', #187 ) ;
#104 = ORIENTED_EDGE ( 'NONE', *, *, #200, .F. ) ;
#105 = ORIENTED_EDGE ( 'NONE', *, *, #234, .T. ) ;
#106 = ADVANCED_FACE ( 'NONE', ( #183, #37 ), #155, .T. ) ;
#107 = VECTOR ( 'NONE', #194, 39.37007874015748143 ) ;
#108 = CARTESIAN_POINT ( 'NONE',  ( 0.000000000000000000, 0.1900000000000000300, 0.000000000000000000 ) ) ;
#109 = EDGE_CURVE ( 'NONE', #51, #122, #29, .T. ) ;
#110 = LINE ( 'NONE', #1, #46 ) ;
#111 = DIRECTION ( 'NONE',  ( 0.000000000000000000, 0.000000000000000000, 1.000000000000000000 ) ) ;
#112 = PLANE ( 'NONE',  #274 ) ;
#113 = PRESENTATION_LAYER_ASSIGNMENT (  '', '', ( #45 ) ) ;
#114 = PLANE ( 'NONE',  #9 ) ;
#115 = CARTESIAN_POINT ( 'NONE',  ( 0.000000000000000000, 0.1900000000000000300, -0.08750000000000000833 ) ) ;
#116 = ORIENTED_EDGE ( 'NONE', *, *, #156, .T. ) ;
#117 = CIRCLE ( 'NONE', #243, 0.1675000000000019806 ) ;
#118 = CARTESIAN_POINT ( 'NONE',  ( 0.000000000000000000, 0.1900000000000000300, 0.000000000000000000 ) ) ;
#119 = CARTESIAN_POINT ( 'NONE',  ( 0.000000000000000000, 0.02999999999999998848, 0.000000000000000000 ) ) ;
#120 = FACE_OUTER_BOUND ( 'NONE', #232, .T. ) ;
#121 = CARTESIAN_POINT ( 'NONE',  ( -0.2430000000000028526, 6.829619984160658046E-17, 0.1675000000000019806 ) ) ;
#122 = VERTEX_POINT ( 'NONE', #81 ) ;
#123 = CLOSED_SHELL ( 'NONE', ( #25, #71, #53, #106, #235, #13, #257, #253, #88 ) ) ;
#124 = VERTEX_POINT ( 'NONE', #121 ) ;
#125 = LINE ( 'NONE', #208, #218 ) ;
#126 = DIRECTION ( 'NONE',  ( 0.000000000000000000, 1.000000000000000000, 0.000000000000000000 ) ) ;
#127 = AXIS2_PLACEMENT_3D ( 'NONE', #265, #249, #198 ) ;
#128 = EDGE_CURVE ( 'NONE', #86, #230, #174, .T. ) ;
#129 = VECTOR ( 'NONE', #74, 39.37007874015748143 ) ;
#130 = EDGE_CURVE ( 'NONE', #122, #51, #213, .T. ) ;
#131 = VECTOR ( 'NONE', #126, 39.37007874015748143 ) ;
#132 = EDGE_LOOP ( 'NONE', ( #105, #39, #116, #205 ) ) ;
#133 = DIRECTION ( 'NONE',  ( 0.000000000000000000, -1.000000000000000000, 0.000000000000000000 ) ) ;
#134 = PRODUCT_DEFINITION_CONTEXT ( 'detailed design', #42, 'design' ) ;
#135 = CARTESIAN_POINT ( 'NONE',  ( 0.000000000000000000, 0.1900000000000000300, 0.1675000000000019806 ) ) ;
#136 = DIRECTION ( 'NONE',  ( 0.000000000000000000, 0.000000000000000000, 1.000000000000000000 ) ) ;
#137 = AXIS2_PLACEMENT_3D ( 'NONE', #92, #31, #138 ) ;
#138 = DIRECTION ( 'NONE',  ( 0.000000000000000000, -0.000000000000000000, 1.000000000000000000 ) ) ;
#139 = EDGE_CURVE ( 'NONE', #102, #17, #117, .T. ) ;
#140 = CARTESIAN_POINT ( 'NONE',  ( 2.051283388571840738E-17, 0.1900000000000000300, -0.1675000000000019806 ) ) ;
#141 = ORIENTED_EDGE ( 'NONE', *, *, #272, .T. ) ;
#142 = PRESENTATION_STYLE_ASSIGNMENT (( #83 ) ) ;
#143 = ORIENTED_EDGE ( 'NONE', *, *, #219, .F. ) ;
#144 = VECTOR ( 'NONE', #59, 39.37007874015748143 ) ;
#145 =( NAMED_UNIT ( * ) SI_UNIT ( $, .STERADIAN. ) SOLID_ANGLE_UNIT ( ) );
#146 = LENGTH_MEASURE_WITH_UNIT ( LENGTH_MEASURE( 0.02539999999999999897 ), #12 );
#147 = EDGE_CURVE ( 'NONE', #96, #99, #40, .T. ) ;
#148 = DIRECTION ( 'NONE',  ( 0.000000000000000000, -0.000000000000000000, -1.000000000000000000 ) ) ;
#149 = FACE_OUTER_BOUND ( 'NONE', #38, .T. ) ;
#150 = ORIENTED_EDGE ( 'NONE', *, *, #128, .F. ) ;
#151 = DIRECTION ( 'NONE',  ( 0.000000000000000000, 0.000000000000000000, 1.000000000000000000 ) ) ;
#152 = DIRECTION ( 'NONE',  ( 0.000000000000000000, 1.000000000000000000, 0.000000000000000000 ) ) ;
#153 = AXIS2_PLACEMENT_3D ( 'NONE', #34, #78, #242 ) ;
#154 = PLANE ( 'NONE',  #153 ) ;
#155 = PLANE ( 'NONE',  #137 ) ;
#156 = EDGE_CURVE ( 'NONE', #188, #96, #79, .T. ) ;
#157 = ORIENTED_EDGE ( 'NONE', *, *, #7, .T. ) ;
#158 = DIRECTION ( 'NONE',  ( -0.000000000000000000, -1.000000000000000000, -0.000000000000000000 ) ) ;
#159 = DIRECTION ( 'NONE',  ( 1.000000000000000000, 0.000000000000000000, 0.000000000000000000 ) ) ;
#160 = AXIS2_PLACEMENT_3D ( 'NONE', #189, #133, #269 ) ;
#161 = CARTESIAN_POINT ( 'NONE',  ( -0.2430000000000028526, 0.1900000000000000300, 0.1675000000000019806 ) ) ;
#162 = DIRECTION ( 'NONE',  ( 1.000000000000000000, 0.000000000000000000, 0.000000000000000000 ) ) ;
#163 = DIRECTION ( 'NONE',  ( 0.000000000000000000, 0.000000000000000000, 1.000000000000000000 ) ) ;
#164 = FACE_OUTER_BOUND ( 'NONE', #85, .T. ) ;
#165 = ORIENTED_EDGE ( 'NONE', *, *, #49, .F. ) ;
#166 = PRODUCT_RELATED_PRODUCT_CATEGORY ( 'part', '', ( #14 ) ) ;
#167 = LENGTH_MEASURE_WITH_UNIT ( LENGTH_MEASURE( 0.02539999999999999897 ), #58 );
#168 = ORIENTED_EDGE ( 'NONE', *, *, #156, .F. ) ;
#169 = CARTESIAN_POINT ( 'NONE',  ( -0.2430000000000028526, 6.829619984160658046E-17, -0.1675000000000019806 ) ) ;
#170 = ORIENTED_EDGE ( 'NONE', *, *, #200, .T. ) ;
#171 = ORIENTED_EDGE ( 'NONE', *, *, #128, .T. ) ;
#172 =( NAMED_UNIT ( * ) PLANE_ANGLE_UNIT ( ) SI_UNIT ( $, .RADIAN. ) );
#173 = AXIS2_PLACEMENT_3D ( 'NONE', #28, #216, #111 ) ;
#174 = CIRCLE ( 'NONE', #57, 0.08750000000000000833 ) ;
#175 = CARTESIAN_POINT ( 'NONE',  ( -0.2430000000000028526, 0.1900000000000000300, -0.1675000000000019806 ) ) ;
#176 = FACE_OUTER_BOUND ( 'NONE', #256, .T. ) ;
#177 = CARTESIAN_POINT ( 'NONE',  ( 0.000000000000000000, 0.02999999999999999889, 0.000000000000000000 ) ) ;
#178 = LINE ( 'NONE', #27, #107 ) ;
#179 = CARTESIAN_POINT ( 'NONE',  ( -5.281194297580916110E-31, 0.000000000000000000, -0.1675000000000019806 ) ) ;
#180 = DIRECTION ( 'NONE',  ( 0.000000000000000000, 0.000000000000000000, -1.000000000000000000 ) ) ;
#181 = EDGE_CURVE ( 'NONE', #102, #209, #245, .T. ) ;
#182 = ADVANCED_BREP_SHAPE_REPRESENTATION ( 'Corner_Pad_Insert', ( #203, #91 ), #62 ) ;
#183 = FACE_BOUND ( 'NONE', #251, .T. ) ;
#184 = DIRECTION ( 'NONE',  ( 9.967440961527362599E-31, -1.000000000000000000, -0.000000000000000000 ) ) ;
#185 = DIRECTION ( 'NONE',  ( -0.000000000000000000, 0.000000000000000000, 1.000000000000000000 ) ) ;
#186 = CARTESIAN_POINT ( 'NONE',  ( 0.000000000000000000, -0.5298445526755998225, 0.000000000000000000 ) ) ;
#187 = COLOUR_RGB ( '',0.7921568627450980005, 0.8196078431372548767, 0.9333333333333333481 ) ;
#188 = VERTEX_POINT ( 'NONE', #19 ) ;
#189 = CARTESIAN_POINT ( 'NONE',  ( 0.000000000000000000, 0.02999999999999998848, 0.000000000000000000 ) ) ;
#190 = ORIENTED_EDGE ( 'NONE', *, *, #49, .T. ) ;
#191 = SURFACE_STYLE_FILL_AREA ( #21 ) ;
#192 = LINE ( 'NONE', #273, #68 ) ;
#193 = DIMENSIONAL_EXPONENTS ( 1.000000000000000000, 0.000000000000000000, 0.000000000000000000, 0.000000000000000000, 0.000000000000000000, 0.000000000000000000, 0.000000000000000000 ) ;
#194 = DIRECTION ( 'NONE',  ( 0.000000000000000000, 1.000000000000000000, 0.000000000000000000 ) ) ;
#195 = MECHANICAL_DESIGN_GEOMETRIC_PRESENTATION_REPRESENTATION (  '', ( #45 ), #98 ) ;
#196 = DIRECTION ( 'NONE',  ( 0.000000000000000000, 1.000000000000000000, 0.000000000000000000 ) ) ;
#197 = CARTESIAN_POINT ( 'NONE',  ( -0.2430000000000028526, 0.000000000000000000, -0.000000000000000000 ) ) ;
#198 = DIRECTION ( 'NONE',  ( 0.000000000000000000, 0.000000000000000000, 1.000000000000000000 ) ) ;
#199 = EDGE_LOOP ( 'NONE', ( #44, #54 ) ) ;
#200 = EDGE_CURVE ( 'NONE', #124, #17, #125, .T. ) ;
#201 = DIRECTION ( 'NONE',  ( 0.000000000000000000, -1.000000000000000000, 0.000000000000000000 ) ) ;
#202 = CARTESIAN_POINT ( 'NONE',  ( 0.000000000000000000, -0.5298445526755998225, -0.1675000000000019806 ) ) ;
#203 = MANIFOLD_SOLID_BREP ( 'Cut-Extrude1', #123 ) ;
#204 = LINE ( 'NONE', #101, #144 ) ;
#205 = ORIENTED_EDGE ( 'NONE', *, *, #147, .T. ) ;
#206 = AXIS2_PLACEMENT_3D ( 'NONE', #119, #201, #15 ) ;
#207 = ORIENTED_EDGE ( 'NONE', *, *, #219, .T. ) ;
#208 = CARTESIAN_POINT ( 'NONE',  ( -5.281194297580916110E-31, 0.000000000000000000, 0.1675000000000019806 ) ) ;
#209 = VERTEX_POINT ( 'NONE', #169 ) ;
#210 = ORIENTED_EDGE ( 'NONE', *, *, #26, .T. ) ;
#211 =( NAMED_UNIT ( * ) SI_UNIT ( $, .STERADIAN. ) SOLID_ANGLE_UNIT ( ) );
#212 = EDGE_CURVE ( 'NONE', #17, #96, #231, .T. ) ;
#213 = CIRCLE ( 'NONE', #206, 0.08750000000000000833 ) ;
#214 = LINE ( 'NONE', #197, #32 ) ;
#215 = DIMENSIONAL_EXPONENTS ( 1.000000000000000000, 0.000000000000000000, 0.000000000000000000, 0.000000000000000000, 0.000000000000000000, 0.000000000000000000, 0.000000000000000000 ) ;
#216 = DIRECTION ( 'NONE',  ( 0.000000000000000000, 1.000000000000000000, -0.000000000000000000 ) ) ;
#217 = FACE_OUTER_BOUND ( 'NONE', #199, .T. ) ;
#218 = VECTOR ( 'NONE', #23, 39.37007874015748143 ) ;
#219 = EDGE_CURVE ( 'NONE', #230, #86, #263, .T. ) ;
#220 = CARTESIAN_POINT ( 'NONE',  ( 0.000000000000000000, 0.000000000000000000, 0.000000000000000000 ) ) ;
#221 = CARTESIAN_POINT ( 'NONE',  ( 0.000000000000000000, 0.000000000000000000, -0.1675000000000019806 ) ) ;
#222 = DIRECTION ( 'NONE',  ( -1.000000000000000000, 0.000000000000000000, -0.000000000000000000 ) ) ;
#223 = VECTOR ( 'NONE', #89, 39.37007874015748143 ) ;
#224 = APPLICATION_PROTOCOL_DEFINITION ( 'draft international standard', 'automotive_design', 1998, #248 ) ;
#225 = DIRECTION ( 'NONE',  ( 0.000000000000000000, 0.000000000000000000, 1.000000000000000000 ) ) ;
#226 = CARTESIAN_POINT ( 'NONE',  ( -0.2430000000000028526, 0.1900000000000000300, -0.1675000000000019806 ) ) ;
#227 = ORIENTED_EDGE ( 'NONE', *, *, #212, .T. ) ;
#228 = ORIENTED_EDGE ( 'NONE', *, *, #272, .F. ) ;
#229 = AXIS2_PLACEMENT_3D ( 'NONE', #8, #158, #180 ) ;
#230 = VERTEX_POINT ( 'NONE', #261 ) ;
#231 = LINE ( 'NONE', #43, #131 ) ;
#232 = EDGE_LOOP ( 'NONE', ( #82, #67, #30, #264 ) ) ;
#233 =( CONVERSION_BASED_UNIT ( 'INCH', #146 ) LENGTH_UNIT ( ) NAMED_UNIT ( #215 ) );
#234 = EDGE_CURVE ( 'NONE', #99, #259, #4, .T. ) ;
#235 = ADVANCED_FACE ( 'NONE', ( #149 ), #236, .F. ) ;
#236 = PLANE ( 'NONE',  #173 ) ;
#237 = LINE ( 'NONE', #47, #223 ) ;
#238 = ORIENTED_EDGE ( 'NONE', *, *, #109, .T. ) ;
#239 = VECTOR ( 'NONE', #225, 39.37007874015748143 ) ;
#240 = UNCERTAINTY_MEASURE_WITH_UNIT (LENGTH_MEASURE( 1.000000000000000082E-05 ), #254, 'distance_accuracy_value', 'NONE');
#241 = ORIENTED_EDGE ( 'NONE', *, *, #234, .F. ) ;
#242 = DIRECTION ( 'NONE',  ( 0.000000000000000000, 0.000000000000000000, -1.000000000000000000 ) ) ;
#243 = AXIS2_PLACEMENT_3D ( 'NONE', #220, #184, #100 ) ;
#244 = PRODUCT_DEFINITION_SHAPE ( 'NONE', 'NONE',  #246 ) ;
#245 = LINE ( 'NONE', #179, #2 ) ;
#246 = PRODUCT_DEFINITION ( 'UNKNOWN', '', #252, #134 ) ;
#247 = CARTESIAN_POINT ( 'NONE',  ( 0.000000000000000000, 3.414809992080329023E-17, 0.1675000000000019806 ) ) ;
#248 = APPLICATION_CONTEXT ( 'automotive_design' ) ;
#249 = DIRECTION ( 'NONE',  ( 0.000000000000000000, 1.000000000000000000, 0.000000000000000000 ) ) ;
#250 = FACE_OUTER_BOUND ( 'NONE', #36, .T. ) ;
#251 = EDGE_LOOP ( 'NONE', ( #150, #143 ) ) ;
#252 = PRODUCT_DEFINITION_FORMATION_WITH_SPECIFIED_SOURCE ( 'ANY', '', #14, .NOT_KNOWN. ) ;
#253 = ADVANCED_FACE ( 'NONE', ( #176 ), #114, .F. ) ;
#254 =( CONVERSION_BASED_UNIT ( 'INCH', #167 ) LENGTH_UNIT ( ) NAMED_UNIT ( #193 ) );
#255 = ORIENTED_EDGE ( 'NONE', *, *, #61, .F. ) ;
#256 = EDGE_LOOP ( 'NONE', ( #168, #6, #170, #227 ) ) ;
#257 = ADVANCED_FACE ( 'NONE', ( #250 ), #95, .F. ) ;
#258 = DIRECTION ( 'NONE',  ( 0.000000000000000000, 0.000000000000000000, -1.000000000000000000 ) ) ;
#259 = VERTEX_POINT ( 'NONE', #226 ) ;
#260 = CARTESIAN_POINT ( 'NONE',  ( 0.000000000000000000, -0.5298445526755998225, 0.1675000000000019806 ) ) ;
#261 = CARTESIAN_POINT ( 'NONE',  ( 1.071565949253934149E-17, 0.1900000000000000300, 0.08750000000000000833 ) ) ;
#262 = DIRECTION ( 'NONE',  ( -0.000000000000000000, -1.000000000000000000, -0.000000000000000000 ) ) ;
#263 = CIRCLE ( 'NONE', #18, 0.08750000000000000833 ) ;
#264 = ORIENTED_EDGE ( 'NONE', *, *, #139, .F. ) ;
#265 = CARTESIAN_POINT ( 'NONE',  ( 0.000000000000000000, 0.1900000000000000300, 0.000000000000000000 ) ) ;
#266 = DIRECTION ( 'NONE',  ( 0.000000000000000000, 1.000000000000000000, 0.000000000000000000 ) ) ;
#267 = UNCERTAINTY_MEASURE_WITH_UNIT (LENGTH_MEASURE( 1.000000000000000082E-05 ), #233, 'distance_accuracy_value', 'NONE');
#268 = ORIENTED_EDGE ( 'NONE', *, *, #35, .F. ) ;
#269 = DIRECTION ( 'NONE',  ( 0.000000000000000000, 0.000000000000000000, -1.000000000000000000 ) ) ;
#270 = SURFACE_SIDE_STYLE ('',( #191 ) ) ;
#271 = CYLINDRICAL_SURFACE ( 'NONE', #24, 0.08750000000000000833 ) ;
#272 = EDGE_CURVE ( 'NONE', #230, #51, #204, .T. ) ;
#273 = CARTESIAN_POINT ( 'NONE',  ( -0.2430000000000028526, -0.5298445526755998225, 0.1675000000000019806 ) ) ;
#274 = AXIS2_PLACEMENT_3D ( 'NONE', #177, #73, #148 ) ;
#275 = SHAPE_DEFINITION_REPRESENTATION ( #244, #182 ) ;
ENDSEC;
END-ISO-10303-21;
