<?xml version="1.0" encoding="UTF-8"?>
<svg version="1.1" viewBox="0 0 2048 661" width="1911" height="617" xmlns="http://www.w3.org/2000/svg">
<path transform="translate(0)" d="m0 0h2048v661h-2048z" fill="#FEFDFD"/>
<path transform="translate(138,140)" d="m0 0h312l1 1v204l-2 19-4 20-8 23-11 21-12 16-18 20-8 7-11 10-17 12-15 9-21 10-20 7-6 2h-7l-24-8-22-10-18-11-16-12-15-13-13-13-9-11-10-13-10-18-6-15-6-21-3-17-1-9z" fill="#024F9A"/>
<path transform="translate(594,140)" d="m0 0h170l19 3 12 5 11 6 13 11 9 10 8 13 5 12 3 14 1 19v16l-2 19-5 16-8 15-9 12-9 8-11 6 14 3 11 6 7 6 7 10 4 12v160h-86l-1-1-1-136-4-10-7-9-8-6-11-4-45-1v158l-1 9h-82l-5-1v-380z" fill="#024F9A"/>
<path transform="translate(1781,140)" d="m0 0h51l17 2 17 5 11 6 10 8 7 8 8 14 5 13 3 14 2 19-1 1h-45l-2-7-3-12-5-10-4-5-8-5-6-2h-20l-13 4-8 6-6 12-2 12 1 13 5 12 9 11 10 11 9 11 13 14 9 11 12 13 9 11 13 14 9 11 8 10 8 14 6 18 1 5v46l-4 16-5 12-8 12-11 12-10 8-10 6-18 6-15 2h-49l-24-3-15-5-11-6-10-9-6-7-6-11-4-10-3-13-1-8v-18h46l1 1 1 17 4 9 4 5 10 6 10 3h19l13-4 6-5 6-12 2-12v-9l-2-9-5-10-9-10-9-11-12-13-9-11-13-14-9-11-13-14-9-11-11-12-9-13-7-14-4-14-1-6v-42l3-15 7-16 9-13 14-14 14-9 12-5 12-3z" fill="#024F9A"/>
<path transform="translate(174,176)" d="m0 0h120l1 1v45h31l1 1v61h25v-61l1-1h33v158h-33l-1-63h-25v63h-33l1 4v100l-9-2-21-9-16-9-16-12-12-11-17-17-11-15-8-15-6-17-4-18-2-19v-163z" fill="#FEFEFE"/>
<path transform="translate(1168,140)" d="m0 0h210v48h-123v119h82v48h-82v167h-87l-1-124v-126z" fill="#024F9A"/>
<path transform="translate(1415,140)" d="m0 0h250v48h-82v334h-86l-1-1v-333h-82v-47z" fill="#024F9A"/>
<path transform="translate(987,140)" d="m0 0h79l-3 12-18 56-18 57-9 27 36 1-3 9-13 28-15 33-16 35-16 36-19 41-16 36-3 6-1-4 23-113 14-69-1-3-36-1 5-29 28-153z" fill="#024F9A"/>
<path transform="translate(1123,262)" d="m0 0 11 2 32 8 1 1 1 15v81l-1 29-11-1-131-20-7-2 1-5 16-35 15-33 2-5 13 2 55 11 2 1z" fill="#FED435"/>
<path transform="translate(845,256)" d="m0 0 14 2 100 20 1 1v8l-7 38-1 2h37l1 4-8 39-23-3-117-18-5-2-6-8-10-7-9-4-13-2 4-3 10-6 9-8 10-15 6-13 4-13 2-11z" fill="#FED435"/>
<path transform="translate(204,222)" d="m0 0h34l4 10 16 47 4 12 1-68 1-1h30v158h-33l-4-9-21-68-1-1-1 78h-31v-157z" fill="#024F9A"/>
<path transform="translate(1338,315)" d="m0 0 11 2 129 32 17 4 1 1v45l-9-1-145-23-80-13-5-1v10h-1l-1-16h83z" fill="#FED434"/>
<path transform="translate(681,188)" d="m0 0h46l9 3 9 7 7 8 5 12v58l-4 11-6 8-8 7-9 4-5 1h-44z" fill="#FED434"/>
<path transform="translate(1584,376)" d="m0 0 8 1 203 50 27 7 2 2-2 16-6 12-7 6-13 4h-19l-12-4-10-7-5-7-2-6-1-17-47-1-113-18-3-1-1-2v-29z" fill="#FED434"/>
<path transform="translate(536,195)" d="m0 0 11 1 45 9 1 1v104l-14-1-45-7v-37z" fill="#FFD434"/>
<path transform="translate(681,188)" d="m0 0h46l9 3 9 7 7 8 5 12v20l-9-1-65-13-2-1z" fill="#FEFEFE"/>
<path transform="translate(1748,439)" d="m0 0 21 3 44 7 9 1-3 9-6 8-6 4-11 3h-19l-12-4-10-7-5-7-2-6z" fill="#FEFEFE"/>
<path transform="translate(1909,456)" d="m0 0 8 1 84 21v1h-7l-86-14-1-4z" fill="#FED434"/>
<path transform="translate(1256,295)" d="m0 0 8 1 36 9 2 2h-47v-11z" fill="#FED435"/>
</svg>
